<svg width="14" height="6" viewBox="0 0 14 6" fill="none" xmlns="http://www.w3.org/2000/svg">
<path d="M4.91159 3.06085L9.6036 3.06085M5.49809 0.714844L3.73859 0.714844C3.11639 0.714844 2.51967 0.962012 2.07971 1.40197C1.63975 1.84193 1.39258 2.43865 1.39258 3.06085C1.39258 3.68305 1.63975 4.27977 2.07971 4.71973C2.51967 5.15969 3.11639 5.40686 3.73859 5.40686H5.49809M9.0171 0.714844L10.7766 0.714844C11.3988 0.714844 11.9955 0.962012 12.4355 1.40197C12.8754 1.84193 13.1226 2.43865 13.1226 3.06085C13.1226 3.68305 12.8754 4.27977 12.4355 4.71973C11.9955 5.15969 11.3988 5.40686 10.7766 5.40686L9.0171 5.40686" stroke="#A0E48B" stroke-linecap="round" stroke-linejoin="round"/>
</svg>
